<svg width="38" height="65" viewBox="0 0 38 65" fill="none" xmlns="http://www.w3.org/2000/svg">
<path d="M13.8505 42.34V41.188C13.8505 39.724 13.8505 38.26 13.8505 36.796C13.8505 35.332 13.8385 33.868 13.8145 32.404L11.4025 32.152V30.028H23.2465V32.152L21.0145 32.368C20.9905 33.664 20.9785 34.972 20.9785 36.292C20.9785 37.612 20.9785 38.944 20.9785 40.288H27.0265C27.0265 38.968 27.0265 37.648 27.0265 36.328C27.0265 35.008 27.0145 33.688 26.9905 32.368L24.7585 32.152V30.028H36.6025V32.152L34.1905 32.404C34.1665 33.844 34.1545 35.296 34.1545 36.76C34.1545 38.224 34.1545 39.7 34.1545 41.188V42.34C34.1545 43.804 34.1545 45.268 34.1545 46.732C34.1545 48.196 34.1665 49.66 34.1905 51.124L36.6025 51.376V53.5H24.7585V51.376L26.9905 51.16C27.0145 49.696 27.0265 48.244 27.0265 46.804C27.0265 45.34 27.0265 43.924 27.0265 42.556H20.9785C20.9785 44.068 20.9785 45.532 20.9785 46.948C20.9785 48.364 20.9905 49.768 21.0145 51.16L23.2465 51.376V53.5H11.4025V51.376L13.8145 51.124C13.8385 49.684 13.8505 48.232 13.8505 46.768C13.8505 45.304 13.8505 43.828 13.8505 42.34Z" fill="white"/>
<path d="M22.2583 31.156V32.632C20.9863 33.376 19.7023 33.904 18.4062 34.216C17.1343 34.552 15.6703 34.72 14.0143 34.72C12.1423 34.72 10.4263 34.456 8.86625 33.928C7.33025 33.376 6.01025 32.572 4.90625 31.516C3.80225 30.436 2.93825 29.116 2.31425 27.556C1.71425 25.996 1.41425 24.208 1.41425 22.192C1.41425 20.272 1.70225 18.544 2.27825 17.008C2.85425 15.472 3.69425 14.176 4.79825 13.12C5.90225 12.04 7.27025 11.224 8.90225 10.672C10.5343 10.096 12.4183 9.808 14.5543 9.808C15.6343 9.808 16.7743 9.94 17.9743 10.204C19.1983 10.468 20.3503 10.876 21.4303 11.428L21.5742 17.188H18.5503L17.3623 12.292C16.7143 12.052 16.0663 11.932 15.4183 11.932C14.5543 11.932 13.7143 12.124 12.8983 12.508C12.1063 12.892 11.3983 13.504 10.7743 14.344C10.1743 15.16 9.69425 16.216 9.33425 17.512C8.97425 18.808 8.79425 20.368 8.79425 22.192C8.79425 24.016 8.97425 25.588 9.33425 26.908C9.69425 28.204 10.1623 29.284 10.7383 30.148C11.3383 30.988 12.0223 31.612 12.7903 32.02C13.5823 32.404 14.3983 32.596 15.2383 32.596H15.5623V30.976C15.5623 29.896 15.5503 28.864 15.5263 27.88C15.5263 26.896 15.5143 25.888 15.4903 24.856L12.4663 24.388V22.264H24.0583V24.388L22.3303 24.64C22.3063 25.72 22.2823 26.8 22.2583 27.88C22.2583 28.936 22.2583 30.028 22.2583 31.156Z" fill="white"/>
<path d="M10.638 45.252C10.134 45.252 9.702 45.186 9.342 45.054C8.982 44.934 8.628 44.706 8.28 44.37C8.184 44.274 8.094 44.184 8.01 44.1C7.926 44.016 7.842 43.926 7.758 43.83C7.398 44.226 6.93 44.562 6.354 44.838C5.778 45.114 5.058 45.252 4.194 45.252C3.618 45.252 3.096 45.168 2.628 45C2.172 44.832 1.782 44.604 1.458 44.316C1.134 44.016 0.882 43.674 0.702 43.29C0.534 42.894 0.45 42.474 0.45 42.03C0.45 41.274 0.672 40.608 1.116 40.032C1.56 39.444 2.25 38.922 3.186 38.466C3.162 38.454 3.144 38.442 3.132 38.43C3.132 38.418 3.12 38.4 3.096 38.376C2.676 37.848 2.376 37.356 2.196 36.9C2.028 36.432 1.944 35.97 1.944 35.514C1.944 35.094 2.022 34.722 2.178 34.398C2.334 34.062 2.55 33.78 2.826 33.552C3.102 33.312 3.432 33.132 3.816 33.012C4.2 32.88 4.626 32.814 5.094 32.814C6.042 32.814 6.768 33.03 7.272 33.462C7.776 33.882 8.028 34.434 8.028 35.118C8.028 35.742 7.812 36.288 7.38 36.756C6.96 37.212 6.282 37.668 5.346 38.124C5.514 38.316 5.712 38.538 5.94 38.79C6.168 39.03 6.438 39.318 6.75 39.654C7.098 40.038 7.422 40.392 7.722 40.716C8.022 41.04 8.322 41.358 8.622 41.67C8.934 41.142 9.192 40.614 9.396 40.086C9.612 39.546 9.786 38.952 9.918 38.304L8.514 38.07V37.296H12.33V38.07L11.016 38.286C10.788 39.078 10.524 39.786 10.224 40.41C9.936 41.022 9.582 41.634 9.162 42.246C9.378 42.474 9.6 42.708 9.828 42.948C10.056 43.188 10.302 43.446 10.566 43.722L12.312 44.028L12.186 45.036C11.85 45.12 11.568 45.174 11.34 45.198C11.124 45.234 10.89 45.252 10.638 45.252ZM4.356 36.936C4.452 37.056 4.542 37.17 4.626 37.278C4.71 37.374 4.8 37.482 4.896 37.602C5.4 37.182 5.784 36.762 6.048 36.342C6.324 35.91 6.462 35.466 6.462 35.01C6.462 34.542 6.33 34.176 6.066 33.912C5.814 33.636 5.484 33.498 5.076 33.498C4.656 33.498 4.308 33.642 4.032 33.93C3.768 34.218 3.636 34.584 3.636 35.028C3.636 35.316 3.684 35.61 3.78 35.91C3.876 36.21 4.068 36.552 4.356 36.936ZM5.49 41.256C5.07 40.752 4.71 40.32 4.41 39.96C4.122 39.6 3.858 39.276 3.618 38.988C3.174 39.336 2.868 39.72 2.7 40.14C2.532 40.56 2.448 40.98 2.448 41.4C2.448 41.748 2.508 42.078 2.628 42.39C2.76 42.69 2.934 42.954 3.15 43.182C3.378 43.41 3.648 43.59 3.96 43.722C4.284 43.854 4.644 43.92 5.04 43.92C5.46 43.92 5.856 43.86 6.228 43.74C6.6 43.62 6.924 43.452 7.2 43.236C6.888 42.888 6.594 42.552 6.318 42.228C6.042 41.892 5.766 41.568 5.49 41.256Z" fill="#AB6C0D"/>
</svg>
