<svg width="39" height="70" viewBox="0 0 39 70" fill="none" xmlns="http://www.w3.org/2000/svg">
<path d="M14.3498 46.7428V45.5908C14.3498 44.1268 14.3498 42.6628 14.3498 41.1988C14.3498 39.7348 14.3378 38.2708 14.3138 36.8068L11.9018 36.5548V34.4308H23.7458V36.5548L21.5138 36.7708C21.4898 38.0668 21.4778 39.3748 21.4778 40.6948C21.4778 42.0148 21.4778 43.3468 21.4778 44.6908H27.5258C27.5258 43.3708 27.5258 42.0508 27.5258 40.7308C27.5258 39.4108 27.5138 38.0908 27.4898 36.7708L25.2578 36.5548V34.4308H37.1018V36.5548L34.6898 36.8068C34.6658 38.2468 34.6538 39.6988 34.6538 41.1628C34.6538 42.6268 34.6538 44.1028 34.6538 45.5908V46.7428C34.6538 48.2068 34.6538 49.6708 34.6538 51.1348C34.6538 52.5988 34.6658 54.0628 34.6898 55.5268L37.1018 55.7788V57.9028H25.2578V55.7788L27.4898 55.5628C27.5138 54.0988 27.5258 52.6468 27.5258 51.2068C27.5258 49.7428 27.5258 48.3268 27.5258 46.9588H21.4778C21.4778 48.4708 21.4778 49.9348 21.4778 51.3508C21.4778 52.7668 21.4898 54.1708 21.5138 55.5628L23.7458 55.7788V57.9028H11.9018V55.7788L14.3138 55.5268C14.3378 54.0868 14.3498 52.6348 14.3498 51.1708C14.3498 49.7068 14.3498 48.2308 14.3498 46.7428Z" fill="white"/>
<path d="M22.5183 34.156V35.632C21.2463 36.376 19.9623 36.904 18.6663 37.216C17.3943 37.552 15.9303 37.72 14.2743 37.72C12.4023 37.72 10.6863 37.456 9.12627 36.928C7.59027 36.376 6.27027 35.572 5.16627 34.516C4.06227 33.436 3.19827 32.116 2.57427 30.556C1.97427 28.996 1.67427 27.208 1.67427 25.192C1.67427 23.272 1.96227 21.544 2.53827 20.008C3.11427 18.472 3.95427 17.176 5.05827 16.12C6.16227 15.04 7.53027 14.224 9.16227 13.672C10.7943 13.096 12.6783 12.808 14.8143 12.808C15.8943 12.808 17.0343 12.94 18.2343 13.204C19.4583 13.468 20.6103 13.876 21.6903 14.428L21.8343 20.188H18.8103L17.6223 15.292C16.9743 15.052 16.3263 14.932 15.6783 14.932C14.8143 14.932 13.9743 15.124 13.1583 15.508C12.3663 15.892 11.6583 16.504 11.0343 17.344C10.4343 18.16 9.95427 19.216 9.59427 20.512C9.23427 21.808 9.05427 23.368 9.05427 25.192C9.05427 27.016 9.23427 28.588 9.59427 29.908C9.95427 31.204 10.4223 32.284 10.9983 33.148C11.5983 33.988 12.2823 34.612 13.0503 35.02C13.8423 35.404 14.6583 35.596 15.4983 35.596H15.8223V33.976C15.8223 32.896 15.8103 31.864 15.7863 30.88C15.7863 29.896 15.7743 28.888 15.7503 27.856L12.7263 27.388V25.264H24.3183V27.388L22.5903 27.64C22.5663 28.72 22.5423 29.8 22.5183 30.88C22.5183 31.936 22.5183 33.028 22.5183 34.156Z" fill="white"/>
<path d="M10.638 49.1224C10.134 49.1224 9.702 49.0564 9.342 48.9244C8.982 48.8044 8.628 48.5764 8.28 48.2404C8.184 48.1444 8.094 48.0544 8.01 47.9704C7.926 47.8864 7.842 47.7964 7.758 47.7004C7.398 48.0964 6.93 48.4324 6.354 48.7084C5.778 48.9844 5.058 49.1224 4.194 49.1224C3.618 49.1224 3.096 49.0384 2.628 48.8704C2.172 48.7024 1.782 48.4744 1.458 48.1864C1.134 47.8864 0.882 47.5444 0.702 47.1604C0.534 46.7644 0.45 46.3444 0.45 45.9004C0.45 45.1444 0.672 44.4784 1.116 43.9024C1.56 43.3144 2.25 42.7924 3.186 42.3364C3.162 42.3244 3.144 42.3124 3.132 42.3004C3.132 42.2884 3.12 42.2704 3.096 42.2464C2.676 41.7184 2.376 41.2264 2.196 40.7704C2.028 40.3024 1.944 39.8404 1.944 39.3844C1.944 38.9644 2.022 38.5924 2.178 38.2684C2.334 37.9324 2.55 37.6504 2.826 37.4224C3.102 37.1824 3.432 37.0024 3.816 36.8824C4.2 36.7504 4.626 36.6844 5.094 36.6844C6.042 36.6844 6.768 36.9004 7.272 37.3324C7.776 37.7524 8.028 38.3044 8.028 38.9884C8.028 39.6124 7.812 40.1584 7.38 40.6264C6.96 41.0824 6.282 41.5384 5.346 41.9944C5.514 42.1864 5.712 42.4084 5.94 42.6604C6.168 42.9004 6.438 43.1884 6.75 43.5244C7.098 43.9084 7.422 44.2624 7.722 44.5864C8.022 44.9104 8.322 45.2284 8.622 45.5404C8.934 45.0124 9.192 44.4844 9.396 43.9564C9.612 43.4164 9.786 42.8224 9.918 42.1744L8.514 41.9404V41.1664H12.33V41.9404L11.016 42.1564C10.788 42.9484 10.524 43.6564 10.224 44.2804C9.936 44.8924 9.582 45.5044 9.162 46.1164C9.378 46.3444 9.6 46.5784 9.828 46.8184C10.056 47.0584 10.302 47.3164 10.566 47.5924L12.312 47.8984L12.186 48.9064C11.85 48.9904 11.568 49.0444 11.34 49.0684C11.124 49.1044 10.89 49.1224 10.638 49.1224ZM4.356 40.8064C4.452 40.9264 4.542 41.0404 4.626 41.1484C4.71 41.2444 4.8 41.3524 4.896 41.4724C5.4 41.0524 5.784 40.6324 6.048 40.2124C6.324 39.7804 6.462 39.3364 6.462 38.8804C6.462 38.4124 6.33 38.0464 6.066 37.7824C5.814 37.5064 5.484 37.3684 5.076 37.3684C4.656 37.3684 4.308 37.5124 4.032 37.8004C3.768 38.0884 3.636 38.4544 3.636 38.8984C3.636 39.1864 3.684 39.4804 3.78 39.7804C3.876 40.0804 4.068 40.4224 4.356 40.8064ZM5.49 45.1264C5.07 44.6224 4.71 44.1904 4.41 43.8304C4.122 43.4704 3.858 43.1464 3.618 42.8584C3.174 43.2064 2.868 43.5904 2.7 44.0104C2.532 44.4304 2.448 44.8504 2.448 45.2704C2.448 45.6184 2.508 45.9484 2.628 46.2604C2.76 46.5604 2.934 46.8244 3.15 47.0524C3.378 47.2804 3.648 47.4604 3.96 47.5924C4.284 47.7244 4.644 47.7904 5.04 47.7904C5.46 47.7904 5.856 47.7304 6.228 47.6104C6.6 47.4904 6.924 47.3224 7.2 47.1064C6.888 46.7584 6.594 46.4224 6.318 46.0984C6.042 45.7624 5.766 45.4384 5.49 45.1264Z" fill="#AB6C0D"/>
</svg>
